<svg width="310" height="55" viewBox="0 0 310 55" fill="none" xmlns="http://www.w3.org/2000/svg">
<g filter="url(#filter0_d_111_1279)">
<rect width="300" height="45" rx="6" fill="#FEE500"/>
<path fill-rule="evenodd" clip-rule="evenodd" d="M100.714 15C95.1821 15 90.6978 18.113 90.6978 21.9523C90.6978 23.2206 91.1871 24.4092 92.0419 25.4324C93.4462 27.1137 94.6005 29.249 93.9621 31.3445C93.8639 31.6668 94.2741 31.9237 94.5892 31.7369L98.3805 29.4886C99.0828 29.0722 99.8979 28.9046 100.714 28.9046C106.246 28.9046 110.731 25.7918 110.731 21.9523C110.731 18.113 106.246 15 100.714 15Z" fill="black"/>
<path d="M128.105 17.02H129.32C129.32 20.935 128 24.535 123.14 26.95L122.465 25.99C126.755 23.875 128.105 20.845 128.105 17.155V17.02ZM123.2 17.02H128.84V18.025H123.2V17.02ZM127.91 20.38V21.34L122.72 21.85L122.525 20.74L127.91 20.38ZM131.51 15.595H132.77V29.17H131.51V15.595ZM132.425 21.1H134.93V22.135H132.425V21.1ZM141.904 17.02H143.119C143.119 20.935 141.799 24.535 136.939 26.95L136.264 25.99C140.554 23.875 141.904 20.845 141.904 17.155V17.02ZM136.999 17.02H142.639V18.025H136.999V17.02ZM141.709 20.38V21.34L136.519 21.85L136.324 20.74L141.709 20.38ZM145.309 15.595H146.569V29.17H145.309V15.595ZM146.224 21.1H148.729V22.135H146.224V21.1ZM155.432 23.275H156.677V26.65H155.432V23.275ZM156.062 16.495C158.927 16.495 160.982 17.89 160.982 20.05C160.982 22.21 158.927 23.605 156.062 23.605C153.197 23.605 151.127 22.21 151.127 20.05C151.127 17.89 153.197 16.495 156.062 16.495ZM156.062 17.485C153.902 17.485 152.327 18.505 152.327 20.05C152.327 21.595 153.902 22.615 156.062 22.615C158.207 22.615 159.782 21.595 159.782 20.05C159.782 18.505 158.207 17.485 156.062 17.485ZM149.942 26.41H162.227V27.445H149.942V26.41ZM167.96 26.47H180.245V27.505H167.96V26.47ZM173.45 23.56H174.695V26.905H173.45V23.56ZM169.445 16.615H178.73V20.725H170.72V23.44H169.49V19.72H177.5V17.62H169.445V16.615ZM169.49 22.915H179.045V23.935H169.49V22.915ZM183.079 17.05H191.809V18.055H183.079V17.05ZM181.759 26.155H194.014V27.19H181.759V26.155ZM191.149 17.05H192.364V18.4C192.364 20.14 192.364 22.075 191.854 25L190.609 24.88C191.149 22.105 191.149 20.08 191.149 18.4V17.05ZM205.413 15.625H206.673V25.525H205.413V15.625ZM197.958 27.85H207.078V28.87H197.958V27.85ZM197.958 24.505H199.188V28.195H197.958V24.505ZM199.398 16.555C201.423 16.555 202.923 17.935 202.923 19.9C202.923 21.85 201.423 23.245 199.398 23.245C197.373 23.245 195.858 21.85 195.858 19.9C195.858 17.935 197.373 16.555 199.398 16.555ZM199.398 17.635C198.078 17.635 197.073 18.565 197.073 19.9C197.073 21.22 198.078 22.15 199.398 22.15C200.718 22.15 201.723 21.22 201.723 19.9C201.723 18.565 200.718 17.635 199.398 17.635Z" fill="black" fill-opacity="0.85"/>
</g>
<defs>
<filter id="filter0_d_111_1279" x="0" y="0" width="310" height="55" filterUnits="userSpaceOnUse" color-interpolation-filters="sRGB">
<feFlood flood-opacity="0" result="BackgroundImageFix"/>
<feColorMatrix in="SourceAlpha" type="matrix" values="0 0 0 0 0 0 0 0 0 0 0 0 0 0 0 0 0 0 127 0" result="hardAlpha"/>
<feOffset dx="5" dy="5"/>
<feGaussianBlur stdDeviation="2.5"/>
<feComposite in2="hardAlpha" operator="out"/>
<feColorMatrix type="matrix" values="0 0 0 0 0 0 0 0 0 0 0 0 0 0 0 0 0 0 0.25 0"/>
<feBlend mode="normal" in2="BackgroundImageFix" result="effect1_dropShadow_111_1279"/>
<feBlend mode="normal" in="SourceGraphic" in2="effect1_dropShadow_111_1279" result="shape"/>
</filter>
</defs>
</svg>


<svg width="21" height="17" viewBox="0 0 21 17" fill="none" xmlns="http://www.w3.org/2000/svg">
<path fill-rule="evenodd" clip-rule="evenodd" d="M10.7144 0C5.18205 0 0.697754 3.11296 0.697754 6.95228C0.697754 8.22061 1.18714 9.40915 2.04185 10.4324C3.44617 12.1137 4.60053 14.249 3.96209 16.3445C3.86391 16.6668 4.27415 16.9237 4.58917 16.7369L8.38046 14.4886C9.08277 14.0722 9.89788 13.9046 10.7144 13.9046C16.2463 13.9046 20.7309 10.7918 20.7309 6.95228C20.7309 3.11296 16.2463 0 10.7144 0Z" fill="black"/>
</svg>
