<svg width="310" height="55" viewBox="0 0 310 55" fill="none" xmlns="http://www.w3.org/2000/svg">
<g filter="url(#filter0_d_111_1284)">
<rect width="300" height="45" rx="4" fill="#03C75A"/>
<g clip-path="url(#clip0_111_1284)">
<path d="M101.349 23.0627L95.4169 14.5H90.5V30.5H95.6509V21.936L101.583 30.5H106.5V14.5H101.349V23.0627Z" fill="white"/>
</g>
<path d="M122.895 17.065H124.125V25.015H122.895V17.065ZM122.895 24.655H123.765C125.34 24.655 126.81 24.58 128.52 24.235L128.685 25.3C126.915 25.66 125.4 25.735 123.765 25.735H122.895V24.655ZM132.57 15.61H133.77V29.17H132.57V15.61ZM126.66 20.155H130.05V21.19H126.66V20.155ZM129.705 15.925H130.875V28.48H129.705V15.925ZM145.889 15.595H147.134V29.185H145.889V15.595ZM139.979 16.645C141.989 16.645 143.429 18.49 143.429 21.37C143.429 24.265 141.989 26.11 139.979 26.11C137.984 26.11 136.544 24.265 136.544 21.37C136.544 18.49 137.984 16.645 139.979 16.645ZM139.979 17.77C138.659 17.77 137.729 19.18 137.729 21.37C137.729 23.575 138.659 25.015 139.979 25.015C141.314 25.015 142.229 23.575 142.229 21.37C142.229 19.18 141.314 17.77 139.979 17.77ZM159.778 15.595H161.008V29.185H159.778V15.595ZM156.193 20.635H160.138V21.655H156.193V20.635ZM150.388 16.675H151.618V20.2H155.383V16.675H156.613V25.78H150.388V16.675ZM151.618 21.19V24.745H155.383V21.19H151.618ZM167.865 26.47H180.15V27.505H167.865V26.47ZM173.355 23.56H174.6V26.905H173.355V23.56ZM169.35 16.615H178.635V20.725H170.625V23.44H169.395V19.72H177.405V17.62H169.35V16.615ZM169.395 22.915H178.95V23.935H169.395V22.915ZM182.984 17.05H191.714V18.055H182.984V17.05ZM181.664 26.155H193.919V27.19H181.664V26.155ZM191.054 17.05H192.269V18.4C192.269 20.14 192.269 22.075 191.759 25L190.514 24.88C191.054 22.105 191.054 20.08 191.054 18.4V17.05ZM205.318 15.625H206.578V25.525H205.318V15.625ZM197.863 27.85H206.983V28.87H197.863V27.85ZM197.863 24.505H199.093V28.195H197.863V24.505ZM199.303 16.555C201.328 16.555 202.828 17.935 202.828 19.9C202.828 21.85 201.328 23.245 199.303 23.245C197.278 23.245 195.763 21.85 195.763 19.9C195.763 17.935 197.278 16.555 199.303 16.555ZM199.303 17.635C197.983 17.635 196.978 18.565 196.978 19.9C196.978 21.22 197.983 22.15 199.303 22.15C200.623 22.15 201.628 21.22 201.628 19.9C201.628 18.565 200.623 17.635 199.303 17.635Z" fill="white"/>
</g>
<defs>
<filter id="filter0_d_111_1284" x="0" y="0" width="310" height="55" filterUnits="userSpaceOnUse" color-interpolation-filters="sRGB">
<feFlood flood-opacity="0" result="BackgroundImageFix"/>
<feColorMatrix in="SourceAlpha" type="matrix" values="0 0 0 0 0 0 0 0 0 0 0 0 0 0 0 0 0 0 127 0" result="hardAlpha"/>
<feOffset dx="5" dy="5"/>
<feGaussianBlur stdDeviation="2.5"/>
<feComposite in2="hardAlpha" operator="out"/>
<feColorMatrix type="matrix" values="0 0 0 0 0 0 0 0 0 0 0 0 0 0 0 0 0 0 0.25 0"/>
<feBlend mode="normal" in2="BackgroundImageFix" result="effect1_dropShadow_111_1284"/>
<feBlend mode="normal" in="SourceGraphic" in2="effect1_dropShadow_111_1284" result="shape"/>
</filter>
<clipPath id="clip0_111_1284">
<rect width="16" height="16" fill="white" transform="translate(90.5 14.5)"/>
</clipPath>
</defs>
</svg>
